<svg width="516.4625px" height="146px" xmlns="http://www.w3.org/2000/svg" viewBox="-8.231249999999989 2 516.4625 146" style="background: rgba(0, 0, 0, 0);" preserveAspectRatio="xMidYMid"><defs><filter id="editing-extrusion" x="-100%" y="-100%" width="300%" height="300%"><feFlood result="color1" flood-color="#444"></feFlood><feConvolveMatrix order="6,6" divisor="1" kernelMatrix="1 0 0 0 0 0 0 1 0 0 0 0 0 0 1 0 0 0 0 0 0 1 0 0 0 0 0 0 1 0 0 0 0 0 0 1" in="SourceAlpha" result="extrude"></feConvolveMatrix><feComposite in="color1" in2="extrude" result="comp-extrude" operator="in"></feComposite><feOffset dx="3" dy="3" in="comp-extrude" result="offset-extrude"></feOffset><feMerge><feMergeNode in="offset-extrude"></feMergeNode><feMergeNode in="SourceGraphic"></feMergeNode></feMerge></filter></defs><g filter="url(#editing-extrusion)"><g transform="translate(66.31998586654663, 101.33499908447266)"><path d="M37.44-35.07L37.44-35.07Q38.85-35.58 39.87-35.58L39.87-35.58L39.87-35.58Q41.60-35.58 42.53-34.56L42.53-34.56L42.53-34.56Q43.46-33.54 43.46-32.13L43.46-32.13L43.46-32.13Q43.46-31.62 43.39-31.36L43.39-31.36L43.39-31.36Q42.94-29.63 41.86-28.70L41.86-28.70L41.86-28.70Q40.77-27.78 38.40-26.94L38.40-26.94L18.11-20.10L34.75-13.63L34.75-13.63Q36.61-12.93 37.57-11.81L37.57-11.81L37.57-11.81Q38.53-10.69 38.53-9.28L38.53-9.28L38.53-9.28Q38.53-8.64 38.34-8.06L38.34-8.06L38.34-8.06Q37.63-5.57 35.07-5.57L35.07-5.57L35.07-5.57Q33.92-5.57 32.13-6.27L32.13-6.27L6.02-17.09L6.02-17.09Q3.65-18.11 3.65-20.03L3.65-20.03L3.65-20.03Q3.65-20.35 3.78-20.86L3.78-20.86L3.78-20.86Q4.03-22.14 4.86-22.88L4.86-22.88L4.86-22.88Q5.70-23.62 7.36-24.19L7.36-24.19L37.44-35.07ZM102.34-29.31L96.06-7.55L96.06-7.55Q95.81-6.72 95.81-5.89L95.81-5.89L95.81-5.89Q95.81-5.18 96-4.70L96-4.70L96-4.70Q96.19-4.22 96.42-3.94L96.42-3.94L96.42-3.94Q96.64-3.65 96.70-3.52L96.70-3.52L96.70-3.52Q97.34-2.88 97.34-2.24L97.34-2.24L97.34-2.24Q97.34-2.11 97.22-1.60L97.22-1.60L97.22-1.60Q96.96-0.70 96.10-0.35L96.10-0.35L96.10-0.35Q95.23 0 93.44 0L93.44 0L78.27 0L78.27 0Q76.93 0 76.19-0.45L76.19-0.45L76.19-0.45Q75.46-0.90 75.46-1.66L75.46-1.66L75.46-1.66Q75.46-2.05 75.65-2.50L75.65-2.50L75.65-2.50Q75.84-3.01 76.19-3.30L76.19-3.30L76.19-3.30Q76.54-3.58 77.18-3.97L77.18-3.97L77.18-3.97Q78.21-4.54 78.85-5.25L78.85-5.25L78.85-5.25Q79.49-5.95 79.94-7.55L79.94-7.55L81.60-13.06L71.62-13.06L69.89-9.41L69.89-9.41Q68.80-7.04 68.80-5.70L68.80-5.70L68.80-5.70Q68.80-4.93 69.06-4.45L69.06-4.45L69.06-4.45Q69.31-3.97 69.82-3.46L69.82-3.46L69.82-3.46Q70.27-2.94 70.43-2.59L70.43-2.59L70.43-2.59Q70.59-2.24 70.46-1.66L70.46-1.66L70.46-1.66Q70.21-0.70 69.41-0.35L69.41-0.35L69.41-0.35Q68.61 0 66.88 0L66.88 0L57.34 0L57.34 0Q55.87 0 55.10-0.54L55.10-0.54L55.10-0.54Q54.34-1.09 54.34-1.98L54.34-1.98L54.34-1.98Q54.34-3.01 55.07-3.62L55.07-3.62L55.07-3.62Q55.81-4.22 57.28-4.93L57.28-4.93L57.28-4.93Q59.20-5.89 60.35-6.82L60.35-6.82L60.35-6.82Q61.50-7.74 62.34-9.41L62.34-9.41L73.73-33.02L73.73-33.02Q76.35-38.53 79.90-40.99L79.90-40.99L79.90-40.99Q83.46-43.46 89.28-43.46L89.28-43.46L89.28-43.46Q95.81-43.46 99.39-40.80L99.39-40.80L99.39-40.80Q102.98-38.14 102.98-33.41L102.98-33.41L102.98-33.41Q102.98-31.42 102.34-29.31L102.34-29.31ZM74.56-19.46L83.52-19.46L86.91-30.72L86.91-30.72Q87.17-31.49 87.17-32.32L87.17-32.32L87.17-32.32Q87.17-33.54 86.50-34.14L86.50-34.14L86.50-34.14Q85.82-34.75 84.61-34.75L84.61-34.75L84.61-34.75Q83.07-34.75 81.98-33.86L81.98-33.86L81.98-33.86Q80.90-32.96 79.81-30.66L79.81-30.66L74.56-19.46ZM124.48-33.86L124.48-33.86Q131.84-33.86 136.26-31.14L136.26-31.14L136.26-31.14Q140.67-28.42 140.67-22.85L140.67-22.85L140.67-22.85Q140.67-20.74 139.90-18.05L139.90-18.05L137.28-9.22L137.28-9.22Q137.22-8.96 137.22-8.58L137.22-8.58L137.22-8.58Q137.22-7.55 138.05-7.55L138.05-7.55L138.05-7.55Q138.82-7.55 139.36-8.22L139.36-8.22L139.36-8.22Q139.90-8.90 140.10-8.90L140.10-8.90L140.10-8.90Q140.42-8.90 140.64-8.45L140.64-8.45L140.64-8.45Q140.86-8 140.86-7.42L140.86-7.42L140.86-7.42Q140.93-5.70 139.55-3.90L139.55-3.90L139.55-3.90Q138.18-2.11 135.87-0.96L135.87-0.96L135.87-0.96Q133.57 0.19 130.82 0.19L130.82 0.19L130.82 0.19Q127.49 0.19 125.12-1.02L125.12-1.02L125.12-1.02Q122.75-2.24 121.86-4.61L121.86-4.61L121.86-4.61Q119.94-2.30 117.31-1.06L117.31-1.06L117.31-1.06Q114.69 0.19 111.68 0.19L111.68 0.19L111.68 0.19Q108.29 0.19 105.98-1.12L105.98-1.12L105.98-1.12Q103.68-2.43 102.56-4.51L102.56-4.51L102.56-4.51Q101.44-6.59 101.44-8.90L101.44-8.90L101.44-8.90Q101.44-9.92 101.63-10.88L101.63-10.88L101.63-10.88Q102.66-15.30 106.08-17.54L106.08-17.54L106.08-17.54Q109.50-19.78 114.24-19.78L114.24-19.78L114.24-19.78Q119.55-19.78 124.67-18.11L124.67-18.11L126.27-22.34L126.27-22.34Q127.10-25.02 127.10-26.50L127.10-26.50L127.10-26.50Q127.04-28.03 126.08-28.80L126.08-28.80L126.08-28.80Q125.12-29.57 123.14-29.57L123.14-29.57L123.14-29.57Q123.52-28.54 123.52-27.46L123.52-27.46L123.52-27.46Q123.52-25.09 121.73-23.36L121.73-23.36L121.73-23.36Q119.94-21.63 116.61-21.63L116.61-21.63L116.61-21.63Q113.47-21.63 111.71-23.01L111.71-23.01L111.71-23.01Q109.95-24.38 109.95-26.43L109.95-26.43L109.95-26.43Q109.95-29.63 113.54-31.74L113.54-31.74L113.54-31.74Q117.12-33.86 124.48-33.86L124.48-33.86ZM120.90-14.46L120.90-14.46Q119.10-14.46 117.98-13.09L117.98-13.09L117.98-13.09Q116.86-11.71 116.86-10.11L116.86-10.11L116.86-10.11Q116.86-9.09 117.34-8.45L117.34-8.45L117.34-8.45Q117.82-7.81 118.72-7.81L118.72-7.81L118.72-7.81Q119.55-7.81 120.54-8.48L120.54-8.48L120.54-8.48Q121.54-9.15 121.98-10.50L121.98-10.50L123.33-14.27L123.33-14.27Q122.24-14.46 120.90-14.46L120.90-14.46ZM172.10-33.02L172.10-33.02Q173.31-33.02 173.98-32.51L173.98-32.51L173.98-32.51Q174.66-32 174.66-31.10L174.66-31.10L174.66-31.10Q174.66-30.85 174.53-30.21L174.53-30.21L174.53-30.21Q173.70-27.39 170.69-27.39L170.69-27.39L166.98-27.39L162.18-11.58L162.18-11.58Q161.86-10.62 161.86-9.60L161.86-9.60L161.86-9.60Q161.86-8.45 162.50-8L162.50-8L162.50-8Q163.14-7.55 164.29-7.55L164.29-7.55L164.29-7.55Q165.31-7.55 166.85-7.81L166.85-7.81L166.85-7.81Q167.62-8 168.19-8L168.19-8L168.19-8Q168.64-8 168.86-7.71L168.86-7.71L168.86-7.71Q169.09-7.42 169.09-6.98L169.09-6.98L169.09-6.98Q169.15-5.70 167.20-3.87L167.20-3.87L167.20-3.87Q165.25-2.05 161.92-0.74L161.92-0.74L161.92-0.74Q158.59 0.58 154.56 0.58L154.56 0.58L154.56 0.58Q150.21 0.58 147.58-1.41L147.58-1.41L147.58-1.41Q144.96-3.39 144.96-6.85L144.96-6.85L144.96-6.85Q144.96-8.45 145.47-9.92L145.47-9.92L149.57-22.59L149.57-22.59Q149.89-23.68 149.89-24.32L149.89-24.32L149.89-24.32Q149.89-25.60 149.28-26.50L149.28-26.50L149.28-26.50Q148.67-27.39 147.58-28.35L147.58-28.35L147.58-28.35Q146.62-29.25 146.24-29.86L146.24-29.86L146.24-29.86Q145.86-30.46 146.05-31.30L146.05-31.30L146.05-31.30Q146.30-32.13 147.14-32.58L147.14-32.58L147.14-32.58Q147.97-33.02 149.76-33.02L149.76-33.02L153.34-33.02L157.38-37.06L157.38-37.06Q159.49-39.17 161.25-40L161.25-40L161.25-40Q163.01-40.83 165.82-40.83L165.82-40.83L165.82-40.83Q169.86-40.83 169.86-37.76L169.86-37.76L169.86-37.76Q169.86-36.80 169.60-35.97L169.60-35.97L168.70-33.02L172.10-33.02ZM214.14-21.44L210.24-8.83L210.24-8.83Q210.11-8.58 210.11-8.06L210.11-8.06L210.11-8.06Q210.11-7.62 210.34-7.36L210.34-7.36L210.34-7.36Q210.56-7.10 210.94-7.10L210.94-7.10L210.94-7.10Q211.71-7.10 212.26-7.78L212.26-7.78L212.26-7.78Q212.80-8.45 212.99-8.45L212.99-8.45L212.99-8.45Q213.31-8.45 213.50-8.03L213.50-8.03L213.50-8.03Q213.70-7.62 213.70-7.04L213.70-7.04L213.70-7.04Q213.76-5.18 212.48-3.42L212.48-3.42L212.48-3.42Q211.20-1.66 208.74-0.54L208.74-0.54L208.74-0.54Q206.27 0.58 202.82 0.58L202.82 0.58L202.82 0.58Q198.59 0.58 196.10-1.38L196.10-1.38L196.10-1.38Q193.60-3.33 193.54-6.59L193.54-6.59L193.54-6.59Q193.54-8.96 194.69-11.90L194.69-11.90L198.21-21.12L198.21-21.12Q198.53-21.95 198.53-22.46L198.53-22.46L198.53-22.46Q198.53-23.30 197.98-23.78L197.98-23.78L197.98-23.78Q197.44-24.26 196.67-24.26L196.67-24.26L196.67-24.26Q195.46-24.26 194.21-23.14L194.21-23.14L194.21-23.14Q192.96-22.02 192.19-19.52L192.19-19.52L192.19-19.65L188.16-6.66L188.16-6.66Q187.97-5.89 187.97-5.31L187.97-5.31L187.97-5.31Q187.97-4.48 188.29-4L188.29-4L188.29-4Q188.61-3.52 189.18-3.07L189.18-3.07L189.18-3.07Q189.63-2.62 189.82-2.34L189.82-2.34L189.82-2.34Q190.02-2.05 189.89-1.60L189.89-1.60L189.89-1.60Q189.57-0.77 188.61-0.38L188.61-0.38L188.61-0.38Q187.65 0 185.66 0L185.66 0L171.07 0L171.07 0Q169.41 0 168.64-0.54L168.64-0.54L168.64-0.54Q167.87-1.09 168.13-1.98L168.13-1.98L168.13-1.98Q168.38-2.75 169.47-3.33L169.47-3.33L169.47-3.33Q170.43-3.84 171.07-4.54L171.07-4.54L171.07-4.54Q171.71-5.25 172.16-6.78L172.16-6.78L181.89-38.72L181.89-38.72Q182.08-39.30 182.08-39.68L182.08-39.68L182.08-39.68Q182.08-40.38 181.73-40.83L181.73-40.83L181.73-40.83Q181.38-41.28 180.80-41.73L180.80-41.73L180.80-41.73Q180.16-42.24 179.87-42.62L179.87-42.62L179.87-42.62Q179.58-43.01 179.78-43.65L179.78-43.65L179.78-43.65Q180.16-45.12 183.81-46.21L183.81-46.21L183.81-46.21Q187.46-47.30 191.42-47.30L191.42-47.30L191.42-47.30Q195.14-47.30 196.90-45.89L196.90-45.89L196.90-45.89Q198.66-44.48 198.66-42.05L198.66-42.05L198.66-42.05Q198.66-40.64 198.21-39.30L198.21-39.30L194.75-28.03L194.75-28.03Q197.25-31.30 200.03-32.58L200.03-32.58L200.03-32.58Q202.82-33.86 206.08-33.86L206.08-33.86L206.08-33.86Q209.98-33.86 212.38-31.49L212.38-31.49L212.38-31.49Q214.78-29.12 214.78-25.34L214.78-25.34L214.78-25.34Q214.78-23.36 214.14-21.44L214.14-21.44ZM233.09-33.86L233.09-33.86Q236.80-33.86 238.53-32.45L238.53-32.45L238.53-32.45Q240.26-31.04 240.26-28.61L240.26-28.61L240.26-28.61Q240.26-27.14 239.81-25.79L239.81-25.79L233.92-6.66L233.92-6.66Q233.73-5.89 233.73-5.31L233.73-5.31L233.73-5.31Q233.73-4.48 234.05-4L234.05-4L234.05-4Q234.37-3.52 234.94-3.07L234.94-3.07L234.94-3.07Q235.39-2.62 235.58-2.34L235.58-2.34L235.58-2.34Q235.78-2.05 235.65-1.60L235.65-1.60L235.65-1.60Q235.33-0.77 234.37-0.38L234.37-0.38L234.37-0.38Q233.41 0 231.42 0L231.42 0L216.83 0L216.83 0Q215.17 0 214.40-0.54L214.40-0.54L214.40-0.54Q213.63-1.09 213.89-1.98L213.89-1.98L213.89-1.98Q214.14-2.75 215.23-3.33L215.23-3.33L215.23-3.33Q216.19-3.84 216.83-4.54L216.83-4.54L216.83-4.54Q217.47-5.25 217.92-6.78L217.92-6.78L223.49-25.28L223.49-25.28Q223.68-25.86 223.68-26.24L223.68-26.24L223.68-26.24Q223.68-26.94 223.36-27.36L223.36-27.36L223.36-27.36Q223.04-27.78 222.40-28.22L222.40-28.22L222.40-28.22Q221.76-28.74 221.50-29.12L221.50-29.12L221.50-29.12Q221.25-29.50 221.44-30.14L221.44-30.14L221.44-30.14Q221.82-31.62 225.47-32.74L225.47-32.74L225.47-32.74Q229.12-33.86 233.09-33.86L233.09-33.86ZM237.38-48L237.38-48Q239.87-48 241.54-46.37L241.54-46.37L241.54-46.37Q243.20-44.74 243.20-42.37L243.20-42.37L243.20-42.37Q243.20-40.70 242.34-39.10L242.34-39.10L242.34-39.10Q241.47-37.50 239.90-36.51L239.90-36.51L239.90-36.51Q238.34-35.52 236.42-35.52L236.42-35.52L236.42-35.52Q233.98-35.52 232.35-37.15L232.35-37.15L232.35-37.15Q230.72-38.78 230.66-41.22L230.66-41.22L230.66-41.22Q230.66-42.82 231.49-44.38L231.49-44.38L231.49-44.38Q232.32-45.95 233.86-46.98L233.86-46.98L233.86-46.98Q235.39-48 237.38-48L237.38-48ZM265.98-47.30L265.98-47.30Q272.83-47.30 276.26-45.22L276.26-45.22L276.26-45.22Q279.68-43.14 279.68-40.13L279.68-40.13L279.68-40.13Q279.68-37.70 277.66-36.38L277.66-36.38L277.66-36.38Q275.65-35.07 272.38-35.07L272.38-35.07L272.38-35.07Q269.38-35.07 267.71-36.54L267.71-36.54L267.71-36.54Q266.05-38.02 266.05-40.19L266.05-40.19L266.05-40.19Q266.05-41.54 266.88-43.01L266.88-43.01L266.88-43.01Q264.96-43.01 263.68-42.08L263.68-42.08L263.68-42.08Q262.40-41.15 261.70-38.91L261.70-38.91L261.70-38.91Q261.31-37.50 261.31-36.29L261.31-36.29L261.31-36.29Q261.31-34.75 261.86-33.89L261.86-33.89L261.86-33.89Q262.40-33.02 263.42-33.02L263.42-33.02L267.20-33.02L267.20-33.02Q270.53-33.02 270.53-30.98L270.53-30.98L270.53-30.98Q270.53-30.72 270.40-30.21L270.40-30.21L270.40-30.21Q270.02-28.80 268.83-28.10L268.83-28.10L268.83-28.10Q267.65-27.39 265.28-27.39L265.28-27.39L263.36-27.39L257.02-6.66L257.02-6.66Q256.83-5.89 256.83-5.31L256.83-5.31L256.83-5.31Q256.83-4.48 257.15-4L257.15-4L257.15-4Q257.47-3.52 258.05-3.07L258.05-3.07L258.05-3.07Q258.50-2.62 258.69-2.34L258.69-2.34L258.69-2.34Q258.88-2.05 258.75-1.60L258.75-1.60L258.75-1.60Q258.43-0.77 257.47-0.38L257.47-0.38L257.47-0.38Q256.51 0 254.53 0L254.53 0L239.94 0L239.94 0Q238.27 0 237.50-0.54L237.50-0.54L237.50-0.54Q236.74-1.09 236.99-1.98L236.99-1.98L236.99-1.98Q237.25-2.75 238.34-3.33L238.34-3.33L238.34-3.33Q239.30-3.84 239.94-4.54L239.94-4.54L239.94-4.54Q240.58-5.25 241.02-6.78L241.02-6.78L246.02-23.17L246.02-23.17Q246.34-24.13 246.34-25.15L246.34-25.15L246.34-25.15Q246.34-26.43 245.79-27.17L245.79-27.17L245.79-27.17Q245.25-27.90 244.16-28.80L244.16-28.80L244.16-28.80Q243.46-29.38 243.10-29.79L243.10-29.79L243.10-29.79Q242.75-30.21 242.75-30.78L242.75-30.78L242.75-30.78Q242.69-32 243.62-32.51L243.62-32.51L243.62-32.51Q244.54-33.02 247.17-33.02L247.17-33.02L248.77-33.02L248.77-33.02Q248.32-34.62 248.32-36.22L248.32-36.22L248.32-36.22Q248.32-37.82 248.90-39.55L248.90-39.55L248.90-39.55Q250.11-42.82 254.11-45.06L254.11-45.06L254.11-45.06Q258.11-47.30 265.98-47.30L265.98-47.30ZM313.73-42.82L284.16 2.24L284.16 2.24Q283.33 3.52 282.50 4.10L282.50 4.10L282.50 4.10Q281.66 4.67 280.77 4.67L280.77 4.67L280.77 4.67Q279.42 4.67 278.66 3.94L278.66 3.94L278.66 3.94Q277.89 3.20 277.89 2.11L277.89 2.11L277.89 2.11Q277.89 1.22 278.46 0.32L278.46 0.32L308.03-44.86L308.03-44.86Q309.57-47.30 311.55-47.30L311.55-47.30L311.55-47.30Q312.83-47.30 313.57-46.53L313.57-46.53L313.57-46.53Q314.30-45.76 314.30-44.67L314.30-44.67L314.30-44.67Q314.30-43.71 313.73-42.82L313.73-42.82ZM361.34-24.06L361.34-24.06Q363.71-23.04 363.71-21.12L363.71-21.12L363.71-21.12Q363.71-20.80 363.58-20.29L363.58-20.29L363.58-20.29Q363.33-19.01 362.50-18.27L362.50-18.27L362.50-18.27Q361.66-17.54 360.00-16.96L360.00-16.96L329.92-6.08L329.92-6.08Q328.51-5.57 327.49-5.57L327.49-5.57L327.49-5.57Q325.76-5.57 324.83-6.59L324.83-6.59L324.83-6.59Q323.90-7.62 323.90-9.02L323.90-9.02L323.90-9.02Q323.90-9.54 323.97-9.79L323.97-9.79L323.97-9.79Q324.42-11.52 325.50-12.45L325.50-12.45L325.50-12.45Q326.59-13.38 328.96-14.21L328.96-14.21L349.25-21.06L332.61-27.52L332.61-27.52Q330.75-28.22 329.79-29.34L329.79-29.34L329.79-29.34Q328.83-30.46 328.83-31.87L328.83-31.87L328.83-31.87Q328.83-32.51 329.02-33.09L329.02-33.09L329.02-33.09Q329.73-35.58 332.29-35.58L332.29-35.58L332.29-35.58Q333.44-35.58 335.23-34.88L335.23-34.88L361.34-24.06Z" fill="#ccc"></path></g></g><style>text {
  font-size: 64px;
  font-family: Arial Black;
  dominant-baseline: central;
  text-anchor: middle;
}</style></svg>