<svg width="339.14375px" height="100.39999999999999px" xmlns="http://www.w3.org/2000/svg" viewBox="80.428125 24.800000000000004 339.14375 100.39999999999999" style="background: rgba(0, 0, 0, 0);" preserveAspectRatio="xMidYMid"><defs><filter id="editing-extrusion" x="-100%" y="-100%" width="300%" height="300%"><feFlood result="color1" flood-color="#444"></feFlood><feConvolveMatrix order="4,4" divisor="1" kernelMatrix="1 0 0 0 0 1 0 0 0 0 1 0 0 0 0 1" in="SourceAlpha" result="extrude"></feConvolveMatrix><feComposite in="color1" in2="extrude" result="comp-extrude" operator="in"></feComposite><feOffset dx="2" dy="2" in="comp-extrude" result="offset-extrude"></feOffset><feMerge><feMergeNode in="offset-extrude"></feMergeNode><feMergeNode in="SourceGraphic"></feMergeNode></feMerge></filter></defs><g filter="url(#editing-extrusion)"><g transform="translate(133.48998475074768, 100.5250015258789)"><path d="M8.52-0.26L0.51-11.73L10.61-22.13L10.61-22.13Q12.24-23.77 14.28-23.77L14.28-23.77L14.28-23.77Q15.05-23.77 15.78-23.31L15.78-23.31L15.78-23.31Q16.52-22.85 16.83-21.98L16.83-21.98L14.94-20.15L7.45-12.39L12.19-6.02L12.19-6.02Q12.80-5.25 12.80-4.41L12.80-4.41L12.80-4.41Q12.80-3.57 12.55-2.88L12.55-2.88L12.55-2.88Q12.29-2.19 11.73-1.63L11.73-1.63L11.73-1.63Q10.61-0.36 8.52-0.26L8.52-0.26ZM51.26 1.02L51.26 1.02L51.26 1.02Q44.73 1.02 44.12-8.26L44.12-8.26L35.34-8.26L35.34-8.26Q34.32-5.92 33.61-3.88L33.61-3.88L32.28 0L25.14 0L41.21-33.66L52.17-33.66L54.32-8.87L54.32-8.87Q54.83-3.52 56.87-1.94L56.87-1.94L56.87-1.94Q55.39 1.02 51.26 1.02ZM39.73-18.46L36.92-11.99L43.96-11.99L43.35-25.09L43.35-26.47L39.73-18.46ZM62.04-1.53L62.04-1.53L62.04-1.53Q60.84-2.86 60.31-4.95L60.31-4.95L60.31-4.95Q59.77-7.04 59.77-10.46L59.77-10.46L59.77-10.46Q59.77-13.87 60.95-16.98L60.95-16.98L60.95-16.98Q62.12-20.09 64.26-22.34L64.26-22.34L64.26-22.34Q68.65-27.03 75.89-27.03L75.89-27.03L75.89-27.03Q78.49-27.03 80.38-26.16L80.38-26.16L89.10-27.03L85.32-7.14L85.32-7.14Q85.17-6.53 85.17-5.41L85.17-5.41L85.17-5.41Q85.17-4.28 85.86-3.57L85.86-3.57L85.86-3.57Q86.55-2.86 87.57-2.75L87.57-2.75L87.57-2.75Q87.06-1.02 85.20 0L85.20 0L85.20 0Q83.33 1.02 81.24 1.02L81.24 1.02L81.24 1.02Q79.15 1.02 77.75 0.23L77.75 0.23L77.75 0.23Q76.35-0.56 75.94-1.89L75.94-1.89L75.94-1.89Q75.12-0.61 73.39 0.20L73.39 0.20L73.39 0.20Q71.66 1.02 69.33 1.02L69.33 1.02L69.33 1.02Q67.01 1.02 65.13 0.41L65.13 0.41L65.13 0.41Q63.24-0.20 62.04-1.53ZM72.80-22.24L72.80-22.24L72.80-22.24Q72.22-21.32 71.71-19.76L71.71-19.76L71.71-19.76Q71.20-18.21 70.35-14.05L70.35-14.05L70.35-14.05Q69.51-9.89 69.51-6.94L69.51-6.94L69.51-6.94Q69.51-3.98 69.97-3.11L69.97-3.11L69.97-3.11Q70.43-2.24 71.25-2.24L71.25-2.24L71.25-2.24Q72.88-2.24 74.08-3.80L74.08-3.80L74.08-3.80Q75.28-5.36 75.73-8.11L75.73-8.11L78.44-23.05L78.44-23.05Q77.37-23.97 76.12-23.97L76.12-23.97L76.12-23.97Q74.87-23.97 74.13-23.56L74.13-23.56L74.13-23.56Q73.39-23.15 72.80-22.24ZM92.67-5.10L92.67-5.10L92.67-5.10Q92.67-6.48 93.38-9.95L93.38-9.95L96.08-23.72L93.08-23.72L93.28-25.25L93.28-25.25Q99.40-27.08 105.32-31.57L105.32-31.57L107.76-31.57L106.54-26.01L110.52-26.01L110.06-23.72L106.13-23.72L103.53-9.95L103.53-9.95Q102.87-6.78 102.87-5.71L102.87-5.71L102.87-5.71Q102.87-3.26 105.01-2.75L105.01-2.75L105.01-2.75Q104.50-1.02 102.66 0L102.66 0L102.66 0Q100.83 1.02 98.23 1.02L98.23 1.02L98.23 1.02Q95.63 1.02 94.15-0.61L94.15-0.61L94.15-0.61Q92.67-2.24 92.67-5.10ZM135.92-5.66L135.92-5.66L135.92-5.66Q135.92-3.42 138.21-2.75L138.21-2.75L138.21-2.75Q137.65-0.87 135.46 0.15L135.46 0.15L135.46 0.15Q133.62 1.02 131.61 1.02L131.61 1.02L131.61 1.02Q129.59 1.02 128.55 0.48L128.55 0.48L128.55 0.48Q127.50-0.05 126.94-0.92L126.94-0.92L126.94-0.92Q126.02-2.24 126.02-4.74L126.02-4.74L126.02-4.74Q126.02-6.22 126.84-10.30L126.84-10.30L127.55-14.18L127.55-14.18Q128.42-18.62 128.42-20.25L128.42-20.25L128.42-20.25Q128.42-23.10 126.84-23.10L126.84-23.10L126.84-23.10Q124.85-23.10 123.57-20.20L123.57-20.20L123.57-20.20Q123.06-19.07 122.71-17.39L122.71-17.39L119.24 0L108.99 1.02L116.18-35.70L126.43-36.72L126.02-34.68L126.02-34.68Q124.59-26.83 123.37-24.17L123.37-24.17L123.37-24.17Q126.23-27.03 131.48-27.03L131.48-27.03L131.48-27.03Q137.04-27.03 138.06-23.36L138.06-23.36L138.06-23.36Q138.41-22.19 138.41-21.17L138.41-21.17L138.41-21.17Q138.41-20.15 138.34-19.35L138.34-19.35L138.34-19.35Q138.26-18.56 138.01-17.14L138.01-17.14L137.34-13.46L136.17-7.70L136.17-7.70Q135.92-6.53 135.92-5.66ZM154.58-2.81L154.58-2.81L154.58-2.81Q153.00 1.02 147.95 1.02L147.95 1.02L147.95 1.02Q145.35 1.02 143.72-0.77L143.72-0.77L143.72-0.77Q142.34-2.35 142.34-3.93L142.34-3.93L142.34-3.93Q142.34-8.06 144.23-16.12L144.23-16.12L146.12-26.01L156.47-27.03L153.36-10.91L153.36-10.91Q152.49-7.14 152.49-5.81L152.49-5.81L152.49-5.81Q152.49-2.91 154.58-2.81ZM147.03-33.10L147.03-33.10L147.03-33.10Q147.03-35.09 148.69-36.16L148.69-36.16L148.69-36.16Q150.35-37.23 152.75-37.23L152.75-37.23L152.75-37.23Q155.14-37.23 156.60-36.16L156.60-36.16L156.60-36.16Q158.05-35.09 158.05-33.10L158.05-33.10L158.05-33.10Q158.05-31.11 156.44-30.09L156.44-30.09L156.44-30.09Q154.84-29.07 152.44-29.07L152.44-29.07L152.44-29.07Q150.04-29.07 148.54-30.09L148.54-30.09L148.54-30.09Q147.03-31.11 147.03-33.10ZM178.81-29.58L178.81-29.58L178.81-29.58Q179.52-30.80 179.52-32.13L179.52-32.13L179.52-32.13Q179.52-34.48 178.09-34.48L178.09-34.48L178.09-34.48Q175.90-34.48 174.98-29.99L174.98-29.99L174.22-26.01L178.86-26.01L178.55-23.72L173.76-23.72L169.17 0L158.87 1.02L163.76-23.72L160.14-23.72L160.60-26.01L164.17-26.01L165.24-30.04L165.24-30.04Q166.16-33.76 170.09-35.50L170.09-35.50L170.09-35.50Q172.94-36.72 177.74-36.72L177.74-36.72L177.74-36.72Q182.53-36.72 184.67-35.50L184.67-35.50L184.67-35.50Q186.81-34.27 186.81-32.64L186.81-32.64L186.81-32.64Q186.81-31.01 185.54-29.99L185.54-29.99L185.54-29.99Q184.26-28.97 182.84-28.97L182.84-28.97L182.84-28.97Q180.03-28.97 178.81-29.58ZM185.18 7.60L185.18 7.60L185.18 7.60Q185.18 6.68 185.64 5.36L185.64 5.36L202.32-40.70L202.32-40.70Q203.24-40.85 205.05-40.85L205.05-40.85L205.05-40.85Q206.86-40.85 207.95-40.37L207.95-40.37L207.95-40.37Q209.05-39.88 209.05-38.40L209.05-38.40L209.05-38.40Q209.05-37.13 208.23-34.78L208.23-34.78L192.02 10.00L192.02 10.00Q191.61 10.20 189.21 10.20L189.21 10.20L189.21 10.20Q185.18 10.20 185.18 7.60ZM216.19-2.09L216.19-2.09L219.56-5.41L225.57-11.68L222.21-16.22L222.21-16.22Q221.44-17.19 220.83-18.00L220.83-18.00L220.83-18.00Q220.22-18.82 220.22-19.64L220.22-19.64L220.22-19.64Q220.22-20.45 220.47-21.17L220.47-21.17L220.47-21.17Q220.73-21.88 221.29-22.44L221.29-22.44L221.29-22.44Q222.46-23.72 224.50-23.82L224.50-23.82L232.51-12.34L222.41-1.94L222.41-1.94Q220.78-0.31 218.74-0.31L218.74-0.31L218.74-0.31Q217.97-0.31 217.23-0.77L217.23-0.77L217.23-0.77Q216.50-1.22 216.19-2.09Z" fill="#ccc"></path></g></g><style>text {
  font-size: 64px;
  font-family: Arial Black;
  dominant-baseline: central;
  text-anchor: middle;
}</style></svg>